<svg width="50" height="50" viewBox="0 0 50 50" fill="none" xmlns="http://www.w3.org/2000/svg">
<path d="M38.9869 25.8335C38.8767 25.8332 38.7682 25.8063 38.6707 25.7551C38.5621 25.6976 38.4713 25.6116 38.408 25.5064C38.3446 25.4012 38.3112 25.2806 38.3112 25.1578V21.2038C38.3112 17.6735 36.9088 14.2878 34.4126 11.7916C31.9163 9.29533 28.5307 7.89294 25.0004 7.89294C21.4702 7.89294 18.0845 9.29533 15.5883 11.7916C13.092 14.2878 11.6896 17.6735 11.6896 21.2038V25.1578C11.6896 25.2808 11.6561 25.4014 11.5927 25.5067C11.5292 25.612 11.4382 25.698 11.3295 25.7554C11.2208 25.8128 11.0984 25.8395 10.9757 25.8326C10.8529 25.8256 10.7344 25.7853 10.6329 25.7159C10.3991 25.5588 10.1233 25.4759 9.84163 25.4781H8.85177C8.62353 25.4768 8.39619 25.5068 8.17609 25.5673C8.07569 25.5952 7.97018 25.5995 7.86783 25.5799C7.76548 25.5603 7.66905 25.5173 7.58609 25.4542C7.50312 25.3911 7.43587 25.3097 7.3896 25.2163C7.34332 25.1229 7.31928 25.0201 7.31934 24.9159V21.2038C7.34821 16.5324 9.22415 12.0622 12.5376 8.7692C15.851 5.47621 20.3327 3.62793 25.0041 3.62793C29.6756 3.62793 34.1573 5.47621 37.4707 8.7692C40.7841 12.0622 42.6601 16.5324 42.6889 21.2038V24.9159C42.6889 25.0201 42.6648 25.1228 42.6184 25.2161C42.5721 25.3094 42.5049 25.3907 42.4219 25.4537C42.339 25.5167 42.2426 25.5597 42.1403 25.5793C42.038 25.5988 41.9325 25.5945 41.8322 25.5666C41.612 25.5066 41.3847 25.4769 41.1565 25.4781H40.1524C39.8734 25.4766 39.6004 25.5595 39.3693 25.7159C39.2567 25.7928 39.1233 25.8338 38.9869 25.8335V25.8335ZM8.85177 24.1267H9.84907C10.0156 24.1265 10.1817 24.1409 10.3457 24.17V21.2038C10.3457 17.3151 11.8904 13.5857 14.6401 10.836C17.3898 8.08635 21.1192 6.54159 25.0079 6.54159C28.8965 6.54159 32.6259 8.08635 35.3756 10.836C38.1253 13.5857 39.67 17.3151 39.67 21.2038V24.1693C39.8313 24.1408 39.9948 24.1266 40.1585 24.1267H41.1639C41.2234 24.1267 41.2829 24.1281 41.3423 24.1308V21.2038C41.3146 16.8901 39.5815 12.7625 36.5214 9.72199C33.4613 6.68151 29.3227 4.97502 25.0089 4.97502C20.6951 4.97502 16.5564 6.68151 13.4963 9.72199C10.4362 12.7625 8.70316 16.8901 8.67542 21.2038V24.1308C8.7288 24.1281 8.78826 24.1267 8.85177 24.1267V24.1267Z" fill="#B41E3C"/>
<path d="M5.63332 37.5548C4.49823 37.5535 3.40998 37.1021 2.60728 36.2995C1.80459 35.497 1.35299 34.4088 1.35156 33.2737V30.8784C1.35281 29.7432 1.80433 28.6549 2.60704 27.8522C3.40976 27.0494 4.49811 26.5979 5.63332 26.5967C5.81252 26.5967 5.98438 26.6679 6.11109 26.7946C6.23781 26.9213 6.30899 27.0932 6.30899 27.2724C6.30899 27.4516 6.23781 27.6234 6.11109 27.7501C5.98438 27.8768 5.81252 27.948 5.63332 27.948C4.8564 27.9489 4.11156 28.2579 3.5622 28.8073C3.01283 29.3567 2.70381 30.1015 2.70291 30.8784V33.273C2.70381 34.0499 3.01286 34.7946 3.56224 35.3439C4.11162 35.8932 4.85646 36.202 5.63332 36.2028C5.81252 36.2028 5.98438 36.2739 6.11109 36.4007C6.23781 36.5274 6.30899 36.6992 6.30899 36.8784C6.30899 37.0576 6.23781 37.2295 6.11109 37.3562C5.98438 37.4829 5.81252 37.5541 5.63332 37.5541V37.5548Z" fill="#B41E3C"/>
<path d="M9.84833 40.0305H9.10508C8.01664 40.0367 6.96732 39.6249 6.17354 38.8802C5.37975 38.1354 4.90202 37.1145 4.83887 36.0278V28.1258C4.8394 27.0636 5.26169 26.0451 6.0129 25.2942C6.7641 24.5432 7.78276 24.1213 8.84495 24.1211H9.84833C10.5878 24.1218 11.2968 24.416 11.8196 24.9391C12.3423 25.4622 12.636 26.1714 12.6362 26.911V37.2427C12.6354 37.9819 12.3415 38.6905 11.8188 39.2132C11.2962 39.7359 10.5875 40.0298 9.84833 40.0305V40.0305ZM8.84495 25.4724C8.14199 25.4732 7.46802 25.7527 6.97095 26.2498C6.47388 26.7469 6.19431 27.4208 6.1936 28.1238V36.0292C6.25742 36.7565 6.59277 37.4332 7.1329 37.9245C7.67303 38.4158 8.37833 38.6857 9.10846 38.6805H9.85171C10.2322 38.6791 10.5966 38.527 10.8652 38.2575C11.1337 37.9881 11.2846 37.6232 11.2848 37.2427V26.911C11.2848 26.5298 11.1335 26.1642 10.8642 25.8945C10.5949 25.6248 10.2295 25.473 9.84833 25.4724H8.84495Z" fill="#B41E3C"/>
<path d="M40.8929 40.0306H40.1531C39.4139 40.0299 38.7052 39.7359 38.1826 39.2132C37.6599 38.6906 37.3659 37.9819 37.3652 37.2427V26.911C37.3654 26.1714 37.6591 25.4622 38.1818 24.9391C38.7046 24.416 39.4136 24.1218 40.1531 24.1211H41.1565C42.2177 24.1222 43.2352 24.5442 43.9856 25.2946C44.736 26.0451 45.1581 27.0625 45.1592 28.1238V35.765C45.1579 36.896 44.708 37.9804 43.9082 38.7801C43.1084 39.5798 42.024 40.0295 40.8929 40.0306V40.0306ZM40.1531 25.4724C39.7719 25.473 39.4065 25.6248 39.1372 25.8945C38.8679 26.1642 38.7166 26.5298 38.7166 26.911V37.2427C38.7171 37.6235 38.8686 37.9886 39.1379 38.2579C39.4072 38.5272 39.7723 38.6787 40.1531 38.6792H40.8929C41.6657 38.6785 42.4066 38.3713 42.953 37.8249C43.4995 37.2786 43.8069 36.5378 43.8078 35.765V28.1258C43.8076 27.4225 43.5283 26.748 43.0312 26.2505C42.534 25.753 41.8598 25.4732 41.1565 25.4724H40.1531Z" fill="#B41E3C"/>
<path d="M44.3671 37.5548C44.1879 37.5548 44.016 37.4836 43.8893 37.3569C43.7626 37.2302 43.6914 37.0583 43.6914 36.8791C43.6914 36.6999 43.7626 36.528 43.8893 36.4013C44.016 36.2746 44.1879 36.2034 44.3671 36.2034C45.1439 36.2027 45.8888 35.8938 46.4382 35.3446C46.9875 34.7953 47.2966 34.0506 47.2975 33.2737V30.8784C47.2966 30.1015 46.9876 29.3567 46.4382 28.8073C45.8888 28.2579 45.144 27.9489 44.3671 27.948C44.1879 27.948 44.016 27.8768 43.8893 27.7501C43.7626 27.6234 43.6914 27.4516 43.6914 27.2724C43.6914 27.0932 43.7626 26.9213 43.8893 26.7946C44.016 26.6679 44.1879 26.5967 44.3671 26.5967C45.5023 26.5979 46.5906 27.0494 47.3934 27.8522C48.1961 28.6549 48.6476 29.7432 48.6488 30.8784V33.273C48.6476 34.4082 48.1961 35.4966 47.3934 36.2993C46.5906 37.102 45.5023 37.5535 44.3671 37.5548V37.5548Z" fill="#B41E3C"/>
<path d="M38.164 43.9909H29.539C29.3598 43.9909 29.1879 43.9197 29.0612 43.793C28.9345 43.6663 28.8633 43.4944 28.8633 43.3152C28.8633 43.136 28.9345 42.9641 29.0612 42.8374C29.1879 42.7107 29.3598 42.6395 29.539 42.6395H38.164C39.0042 42.6395 39.8102 42.3065 40.4054 41.7134C41.0007 41.1204 41.3366 40.3156 41.3396 39.4753V39.3544C41.3396 39.1752 41.4108 39.0033 41.5375 38.8766C41.6642 38.7499 41.8361 38.6787 42.0153 38.6787C42.1945 38.6787 42.3664 38.7499 42.4931 38.8766C42.6198 39.0033 42.691 39.1752 42.691 39.3544V39.4753C42.6879 40.674 42.2096 41.8225 41.361 42.669C40.5123 43.5155 39.3626 43.9909 38.164 43.9909V43.9909Z" fill="#B41E3C"/>
<path d="M26.1968 46.4797C23.9833 46.4797 22.1826 45.0608 22.1826 43.3156C22.1826 41.5703 23.9833 40.1514 26.1968 40.1514C28.4103 40.1514 30.2117 41.5703 30.2117 43.3156C30.2117 45.0608 28.411 46.4797 26.1968 46.4797ZM26.1968 41.5027C24.7536 41.5027 23.534 42.3331 23.534 43.3156C23.534 44.298 24.7502 45.1284 26.1968 45.1284C27.6434 45.1284 28.8603 44.298 28.8603 43.3156C28.8603 42.3331 27.6407 41.5027 26.1968 41.5027V41.5027Z" fill="#B41E3C"/>
</svg>
