<svg width="40" height="40" viewBox="0 0 40 40" fill="none" xmlns="http://www.w3.org/2000/svg">
<g clip-path="url(#clip0)">
<path d="M0.65603 19.9911H0.679362C1.03885 19.9914 1.33376 19.7065 1.34601 19.3471C1.70667 9.04438 10.3511 0.98473 20.6538 1.3453C24.6167 1.48405 28.4325 2.8811 31.548 5.33413H28.0001C27.6319 5.33413 27.3334 5.63262 27.3334 6.00078C27.3334 6.36894 27.6319 6.66743 28.0001 6.66743H33.3333H33.3426C33.3948 6.66318 33.4462 6.65293 33.4959 6.63677C33.53 6.63185 33.5636 6.62452 33.5966 6.61477C33.6153 6.60677 33.6293 6.5901 33.6473 6.5801C33.7071 6.55085 33.762 6.51235 33.8099 6.4661L33.8166 6.46144C33.8335 6.43827 33.8489 6.41402 33.8626 6.38877C33.8975 6.34627 33.9269 6.29944 33.9499 6.24944C33.9683 6.19628 33.9795 6.14095 33.9833 6.08478C33.9909 6.05728 33.9965 6.0292 33.9999 6.00078V0.66757C33.9999 0.299412 33.7014 0.000919064 33.3333 0.000919064C32.9651 0.000919064 32.6666 0.299412 32.6666 0.66757V4.52882C24.1251 -2.46952 11.5274 -1.21855 4.52902 7.32308C1.75134 10.7133 0.164541 14.9223 0.012711 19.3025C0.000377934 19.6702 0.288288 19.9785 0.65603 19.9911Z" fill="#EFEFEF"/>
<path d="M6.05326 32.4062C5.8086 32.13 5.38645 32.1045 5.11029 32.3492C4.83412 32.5938 4.80863 33.016 5.05329 33.2922C5.51219 33.8071 5.99701 34.2985 6.50592 34.7641C6.78266 35.007 7.20382 34.9795 7.44673 34.7029C7.68273 34.434 7.66439 34.0268 7.40523 33.7801C6.93141 33.3456 6.48017 32.887 6.05326 32.4062Z" fill="#EFEFEF"/>
<path d="M14.0091 37.6848C13.3996 37.4784 12.8013 37.2405 12.2165 36.9721C11.8866 36.8087 11.4866 36.9437 11.3232 37.2736C11.1598 37.6035 11.2948 38.0035 11.6247 38.1669C11.636 38.1725 11.6475 38.1778 11.6592 38.1827C12.2862 38.4714 12.928 38.7268 13.5818 38.948C13.9306 39.066 14.3091 38.8789 14.4271 38.5301C14.5452 38.1812 14.358 37.8028 14.0091 37.6848Z" fill="#EFEFEF"/>
<path d="M10.5072 36.0761V36.0754C9.95309 35.7472 9.41602 35.3912 8.89786 35.0088C8.60878 34.7807 8.18962 34.8302 7.96155 35.1193C7.73347 35.4084 7.78297 35.8275 8.07204 36.0556C8.08288 36.0641 8.09388 36.0723 8.10521 36.0802C8.65937 36.4904 9.2341 36.872 9.82718 37.2235C10.144 37.4112 10.5531 37.3067 10.7408 36.9898C10.9287 36.6729 10.824 36.2638 10.5072 36.0761Z" fill="#EFEFEF"/>
<path d="M4.84593 30.9014C4.47011 30.379 4.12128 29.8375 3.80062 29.2795C3.61654 28.9601 3.20838 28.8504 2.88897 29.0345C2.56956 29.2186 2.4599 29.6267 2.64398 29.9461C2.98747 30.5429 3.3613 31.1216 3.76396 31.6801C3.98503 31.9745 4.40294 32.0339 4.69735 31.8128C4.98334 31.5981 5.04893 31.1959 4.84593 30.9014Z" fill="#EFEFEF"/>
<path d="M2.98644 27.8342C2.98644 27.7413 2.96694 27.6493 2.92935 27.5644L2.92802 27.5598C2.66711 26.9721 2.43678 26.3713 2.23804 25.7598C2.14137 25.4046 1.77496 25.1949 1.41972 25.2917C1.06448 25.3883 0.854817 25.7547 0.951565 26.11C0.957232 26.1306 0.963815 26.151 0.971398 26.1711C1.18414 26.8279 1.43072 27.4732 1.71005 28.1044C1.81696 28.3457 2.05612 28.5012 2.32003 28.5011C2.68819 28.5009 2.98652 28.2023 2.98644 27.8342Z" fill="#EFEFEF"/>
<path d="M1.22636 24.6844C1.22644 24.6844 1.2266 24.6843 1.22669 24.6843C1.58643 24.6076 1.81609 24.2541 1.74001 23.8943C1.60718 23.2646 1.5066 22.6284 1.43868 21.9884C1.39985 21.622 1.07136 21.3565 0.705034 21.3954C0.338709 21.4342 0.0732148 21.7627 0.112047 22.129C0.185046 22.8146 0.293126 23.4959 0.43604 24.1703C0.512371 24.5306 0.866197 24.7606 1.22636 24.6844Z" fill="#EFEFEF"/>
<path d="M38.9341 24.0039C38.9339 24.0038 38.9336 24.0038 38.9334 24.0037C38.5761 23.9152 38.2147 24.133 38.1261 24.4904C37.9716 25.1154 37.7849 25.7319 37.5668 26.3376C37.4419 26.6841 37.6216 27.0661 37.9681 27.191C38.3146 27.3158 38.6966 27.1361 38.8214 26.7896C39.0553 26.1409 39.2555 25.4804 39.4214 24.811C39.5097 24.4536 39.2915 24.0923 38.9341 24.0039Z" fill="#EFEFEF"/>
<path d="M17.7676 38.5334C17.1287 38.4573 16.4941 38.3483 15.8664 38.2067C15.5072 38.1256 15.1502 38.3509 15.069 38.7101C14.9879 39.0692 15.2132 39.4262 15.5724 39.5074C16.2452 39.659 16.9254 39.7759 17.6103 39.8574C17.6369 39.8606 17.6636 39.8621 17.6903 39.862C18.0585 39.8613 18.3563 39.5621 18.3555 39.194C18.3549 38.8568 18.1026 38.5732 17.7676 38.5334Z" fill="#EFEFEF"/>
<path d="M37.7046 27.8062C37.3732 27.6462 36.9749 27.785 36.8145 28.1162C36.5343 28.6957 36.2241 29.2603 35.8852 29.8075C35.6967 30.1238 35.8004 30.533 36.1167 30.7214C36.4253 30.9053 36.8242 30.8115 37.0185 30.5095C37.3813 29.9229 37.7136 29.3178 38.0138 28.6969C38.1744 28.3655 38.0359 27.9668 37.7046 27.8062Z" fill="#EFEFEF"/>
<path d="M35.7352 31.2734C35.447 31.0443 35.0276 31.0921 34.7985 31.3803C34.7945 31.3853 34.7906 31.3904 34.7867 31.3955V31.3942C34.3934 31.9044 33.974 32.3939 33.5301 32.8608C33.2763 33.1277 33.2868 33.55 33.5538 33.8038C33.8207 34.0576 34.2429 34.047 34.4967 33.7801C34.9714 33.2799 35.4205 32.7559 35.842 32.2102C36.0712 31.922 36.0233 31.5026 35.7352 31.2734Z" fill="#EFEFEF"/>
<path d="M39.3445 20.0319C38.9823 20.0134 38.6737 20.292 38.6552 20.6542C38.6549 20.6609 38.6547 20.6678 38.6545 20.6745C38.6319 21.3178 38.576 21.9596 38.4872 22.5972C38.4369 22.9614 38.6911 23.2975 39.0552 23.3485C39.0861 23.353 39.1172 23.3552 39.1485 23.3551C39.4807 23.3546 39.762 23.1096 39.8078 22.7805C39.9027 22.0976 39.9625 21.4103 39.9871 20.7212C39.9999 20.3535 39.7123 20.0449 39.3445 20.0319Z" fill="#EFEFEF"/>
<path d="M32.1332 34.1869V34.1889C31.6426 34.6077 31.1308 35.0011 30.5999 35.3675C30.2963 35.5774 30.2204 35.9936 30.4303 36.2972C30.6401 36.6008 31.0563 36.6767 31.3599 36.4669C31.9276 36.0726 32.475 35.6499 32.9999 35.2002C33.2797 34.9609 33.3125 34.5401 33.0732 34.2602C32.8339 33.9804 32.413 33.9476 32.1332 34.1869Z" fill="#EFEFEF"/>
<path d="M25.4076 37.8721C24.7915 38.0578 24.1663 38.2113 23.5343 38.3321C23.1727 38.4017 22.936 38.7511 23.0055 39.1127C23.0658 39.4261 23.3398 39.6528 23.6589 39.6534C23.7012 39.6536 23.7434 39.6497 23.7849 39.6421C24.4624 39.5126 25.1327 39.3477 25.7929 39.1481C26.1426 39.0328 26.3327 38.6559 26.2174 38.3063C26.1062 37.9689 25.7501 37.778 25.4076 37.8721Z" fill="#EFEFEF"/>
<path d="M21.6569 38.5943C21.6446 38.5949 21.6325 38.596 21.6203 38.5974L21.6236 38.6C21.0903 38.6454 20.5443 38.6667 20.0003 38.6667H19.6957C19.3321 38.6719 19.0349 38.9582 19.0163 39.3213C19.0097 39.6895 19.3027 39.9933 19.6708 40C19.6708 40 19.6709 40 19.671 40H20.0003C20.583 40 21.167 39.974 21.7336 39.9253C22.1012 39.9041 22.382 39.589 22.3608 39.2214C22.3395 38.8538 22.0244 38.573 21.6569 38.5943Z" fill="#EFEFEF"/>
<path d="M28.9593 36.3795H28.96C28.3956 36.6886 27.8157 36.9685 27.2227 37.2181C26.8815 37.3566 26.7171 37.7453 26.8554 38.0864C26.9938 38.4276 27.3826 38.592 27.7237 38.4537C27.7287 38.4517 27.7337 38.4496 27.7386 38.4474C28.3741 38.18 28.9953 37.8801 29.5999 37.5488C29.9228 37.3719 30.0411 36.9667 29.8642 36.6438C29.6875 36.3209 29.2822 36.2026 28.9593 36.3795Z" fill="#EFEFEF"/>
<path d="M20.0003 6.00085C12.2685 6.00085 6.00061 12.2687 6.00061 20.0005C6.00061 27.7324 12.2685 34.0002 20.0003 34.0002C27.7321 34.0002 34 27.7324 34 20.0005C33.9912 12.2724 27.7284 6.00969 20.0003 6.00085ZM30.6667 20.6672H32.6327C32.2863 27.1268 27.1265 32.2866 20.6669 32.6329V30.667C20.6669 30.2988 20.3684 30.0003 20.0003 30.0003C19.6321 30.0003 19.3336 30.2988 19.3336 30.667V32.6329C12.874 32.2866 7.71424 27.1268 7.36791 20.6672H9.33387C9.70203 20.6672 10.0005 20.3687 10.0005 20.0005C10.0005 19.6324 9.70203 19.3339 9.33387 19.3339H7.36791C7.71424 12.8743 12.874 7.71448 19.3336 7.36816V9.33411C19.3336 9.70227 19.6321 10.0008 20.0003 10.0008C20.3684 10.0008 20.6669 9.70227 20.6669 9.33411V7.36816C27.1265 7.71448 32.2863 12.8743 32.6327 19.3339H30.6667C30.2986 19.3339 30.0001 19.6324 30.0001 20.0005C30.0001 20.3687 30.2986 20.6672 30.6667 20.6672Z" fill="#EFEFEF"/>
<path d="M20.6669 18.1232V12.0006C20.6669 11.6325 20.3684 11.334 20.0002 11.334C19.6321 11.334 19.3336 11.6325 19.3336 12.0006V18.1232C18.769 18.3248 18.3246 18.7692 18.1229 19.3338H14.667C14.2989 19.3338 14.0004 19.6323 14.0004 20.0004C14.0004 20.3686 14.2989 20.6671 14.667 20.6671H18.1229C18.4883 21.7067 19.6272 22.2534 20.6669 21.8881C21.7065 21.5227 22.2532 20.3838 21.8879 19.3441C21.6872 18.773 21.238 18.3239 20.6669 18.1232ZM20.0002 20.6671C19.6321 20.6671 19.3336 20.3686 19.3336 20.0004C19.3336 19.6323 19.6321 19.3338 20.0002 19.3338C20.3684 19.3338 20.6669 19.6323 20.6669 20.0004C20.6669 20.3686 20.3685 20.6671 20.0002 20.6671Z" fill="#EFEFEF"/>
</g>
<defs>
<clipPath id="clip0">
<rect width="40" height="40" fill="white"/>
</clipPath>
</defs>
</svg>
