<svg width="40" height="40" viewBox="0 0 40 40" fill="none" xmlns="http://www.w3.org/2000/svg">
<path d="M20.5222 21.8302C20.4482 21.8142 20.3723 21.8113 20.2973 21.8225C19.5461 21.735 18.9794 21.0994 18.9781 20.3433C18.9781 19.981 18.6843 19.6872 18.322 19.6872C17.9596 19.6872 17.6658 19.981 17.6658 20.3433C17.6678 21.6059 18.5123 22.7118 19.7297 23.046V23.7021C19.7297 24.0644 20.0234 24.3582 20.3858 24.3582C20.7481 24.3582 21.0419 24.0644 21.0419 23.7021V23.0857C22.447 22.7916 23.402 21.4829 23.2544 20.055C23.1063 18.6271 21.9034 17.542 20.4678 17.5417C19.6451 17.5417 18.9781 16.8747 18.9781 16.052C18.9781 15.2293 19.6451 14.5623 20.4678 14.5623C21.2905 14.5623 21.9575 15.2293 21.9575 16.052C21.9575 16.4143 22.2513 16.7081 22.6136 16.7081C22.976 16.7081 23.2697 16.4143 23.2697 16.052C23.2678 14.7263 22.3391 13.5829 21.0419 13.3093V12.7121C21.0419 12.3498 20.7481 12.056 20.3858 12.056C20.0234 12.056 19.7297 12.3498 19.7297 12.7121V13.3494C18.3758 13.7191 17.5044 15.0335 17.6908 16.4246C17.8773 17.8156 19.0642 18.8539 20.4678 18.8536C21.2796 18.8536 21.9418 19.5037 21.9565 20.3151C21.9716 21.1266 21.3334 21.8007 20.5222 21.8302V21.8302Z" fill="#EFEFEF"/>
<path d="M10.9534 18.2482C10.9534 23.5029 15.213 27.7625 20.4677 27.7625C25.7224 27.7625 29.982 23.5029 29.982 18.2482C29.982 12.9935 25.7224 8.73389 20.4677 8.73389C15.2156 8.73965 10.9595 12.9961 10.9534 18.2482ZM20.4677 10.0461C24.9977 10.0461 28.6698 13.7182 28.6698 18.2482C28.6698 22.7782 24.9977 26.4503 20.4677 26.4503C15.9377 26.4503 12.2656 22.7782 12.2656 18.2482C12.2707 13.7204 15.9399 10.0512 20.4677 10.0461Z" fill="#EFEFEF"/>
<path d="M33.2163 29.38L28.0766 31.8084C27.367 30.4885 26.0058 29.6485 24.5077 29.6062L19.7631 29.4758C19.0118 29.4543 18.2746 29.264 17.6067 28.919L17.1239 28.6688C14.6519 27.3803 11.7055 27.3835 9.23606 28.6771L9.26617 27.5834C9.2761 27.221 8.99065 26.9193 8.62832 26.9093L3.42553 26.7661C3.06319 26.7562 2.76172 27.0416 2.75179 27.404L2.43751 38.8213C2.42758 39.1836 2.71302 39.4854 3.07536 39.4953L8.27815 39.6385H8.29609C8.6517 39.6385 8.9426 39.3557 8.95221 39.0004L8.96727 38.4541L10.3189 37.7304C10.8494 37.445 11.4697 37.3771 12.0492 37.5411L20.1206 39.8064C20.1347 39.8106 20.1488 39.8138 20.1632 39.817C20.7466 39.939 21.3412 40.0002 21.9371 39.9999C23.1993 40.0006 24.4469 39.7286 25.5941 39.2019C25.6223 39.1891 25.6495 39.174 25.6755 39.157L37.3782 31.5874C37.6698 31.3987 37.7639 31.0158 37.5932 30.7134C36.7243 29.1718 34.7973 28.5845 33.2163 29.38V29.38ZM3.76736 38.2017L4.04544 28.096L7.93632 28.203L7.65824 38.309L3.76736 38.2017ZM25.003 38.03C23.5777 38.6733 21.9858 38.8508 20.4538 38.5378L12.4042 36.2782C11.4982 36.0222 10.5284 36.1283 9.69963 36.5739L9.00891 36.9439L9.19377 30.2248C11.3825 28.7691 14.1896 28.6195 16.5206 29.834L17.0034 30.0842C17.8473 30.5199 18.7779 30.7602 19.7272 30.7877L24.4722 30.9181C25.8049 30.9565 26.9368 31.9055 27.2071 33.2113L20.1395 33.0162C19.7772 33.0063 19.4757 33.292 19.4654 33.6541C19.4555 34.0164 19.7413 34.3182 20.1033 34.3281L27.903 34.5428H27.9213C28.2765 34.5424 28.5671 34.2595 28.5767 33.9046C28.5847 33.6195 28.5636 33.334 28.5133 33.0534L33.785 30.5625C33.7901 30.5602 33.7952 30.5577 33.8003 30.5551C34.5481 30.1768 35.4522 30.3033 36.0673 30.8726L25.003 38.03Z" fill="#EFEFEF"/>
<path d="M21.1238 6.88921V0.656115C21.1238 0.293778 20.83 0 20.4676 0C20.1053 0 19.8115 0.293778 19.8115 0.656115V6.88921C19.8115 7.25155 20.1053 7.54533 20.4676 7.54533C20.83 7.54533 21.1238 7.25155 21.1238 6.88921Z" fill="#EFEFEF"/>
<path d="M26.0447 6.88915V3.93663C26.0447 3.5743 25.7509 3.28052 25.3885 3.28052C25.0262 3.28052 24.7324 3.5743 24.7324 3.93663V6.88915C24.7324 7.25149 25.0262 7.54527 25.3885 7.54527C25.7509 7.54527 26.0447 7.25149 26.0447 6.88915Z" fill="#EFEFEF"/>
<path d="M16.2031 6.88915V3.93663C16.2031 3.5743 15.9093 3.28052 15.547 3.28052C15.1846 3.28052 14.8909 3.5743 14.8909 3.93663V6.88915C14.8909 7.25149 15.1846 7.54527 15.547 7.54527C15.9093 7.54527 16.2031 7.25149 16.2031 6.88915Z" fill="#EFEFEF"/>
</svg>
