<svg width="40" height="40" viewBox="0 0 40 40" fill="none" xmlns="http://www.w3.org/2000/svg">
<path d="M32.4999 22.5V25H31.8749C31.7513 25 31.6305 25.0367 31.5277 25.1054C31.4249 25.1741 31.3449 25.2717 31.2976 25.3858C31.2503 25.5 31.2379 25.6257 31.262 25.7469C31.2861 25.8681 31.3456 25.9795 31.433 26.0669L34.558 29.1919C34.6752 29.309 34.8341 29.3749 34.9999 29.3749C35.1656 29.3749 35.3245 29.309 35.4417 29.1919L38.5668 26.0669C38.6541 25.9795 38.7136 25.8681 38.7377 25.7469C38.7618 25.6257 38.7495 25.5 38.7022 25.3858C38.6549 25.2717 38.5748 25.1741 38.472 25.1054C38.3693 25.0367 38.2485 25 38.1249 25H37.4999V22.5C37.4999 22.3342 37.434 22.1753 37.3168 22.0581C37.1996 21.9408 37.0406 21.875 36.8749 21.875H33.1249C32.9591 21.875 32.8001 21.9408 32.6829 22.0581C32.5657 22.1753 32.4999 22.3342 32.4999 22.5ZM33.7499 25.625V23.125H36.2499V25.625C36.2498 25.7523 36.2886 25.8766 36.3611 25.9813C36.4336 26.0859 36.5363 26.1659 36.6555 26.2106L34.9999 27.8662L33.3442 26.2106C33.4635 26.1659 33.5662 26.0859 33.6387 25.9813C33.7112 25.8766 33.75 25.7523 33.7499 25.625Z" fill="#EFEFEF"/>
<path d="M26.8749 21.875H23.1249C22.9591 21.875 22.8001 21.9408 22.6829 22.0581C22.5657 22.1753 22.4999 22.3342 22.4999 22.5V25H21.8749C21.7513 25 21.6305 25.0367 21.5277 25.1054C21.4249 25.1741 21.3449 25.2717 21.2976 25.3858C21.2503 25.5 21.2379 25.6257 21.262 25.7469C21.2861 25.8681 21.3456 25.9795 21.433 26.0669L24.558 29.1919C24.6752 29.309 24.8341 29.3749 24.9999 29.3749C25.1656 29.3749 25.3245 29.309 25.4418 29.1919L28.5668 26.0669C28.6541 25.9795 28.7136 25.8681 28.7377 25.7469C28.7619 25.6257 28.7495 25.5 28.7022 25.3858C28.6549 25.2717 28.5748 25.1741 28.472 25.1054C28.3693 25.0367 28.2485 25 28.1249 25H27.4999V22.5C27.4999 22.3342 27.434 22.1753 27.3168 22.0581C27.1996 21.9408 27.0406 21.875 26.8749 21.875ZM24.9999 27.8662L23.3442 26.2106C23.4635 26.1659 23.5662 26.0859 23.6387 25.9813C23.7112 25.8766 23.75 25.7523 23.7499 25.625V23.125H26.2499V25.625C26.2498 25.7523 26.2886 25.8766 26.3611 25.9813C26.4336 26.0859 26.5363 26.1659 26.6555 26.2106L24.9999 27.8662Z" fill="#EFEFEF"/>
<path d="M37.5 34.375V36.6162L30.4419 29.5581C30.3247 29.4409 30.1657 29.3751 30 29.3751C29.8343 29.3751 29.6753 29.4409 29.5581 29.5581L25.6737 33.4419L15.4862 20.8569C15.4311 20.7887 15.3623 20.7329 15.2843 20.693C15.2062 20.6532 15.1206 20.6302 15.0331 20.6256C14.9457 20.6218 14.8585 20.636 14.7769 20.6674C14.6953 20.6988 14.621 20.7467 14.5587 20.8081L9.99998 25.3662L1.69186 17.0581L0.808105 17.9419L9.55811 26.6919C9.67531 26.809 9.83425 26.8748 9.99998 26.8748C10.1657 26.8748 10.3247 26.809 10.4419 26.6919L14.9512 22.1831L25.1387 34.7681C25.1938 34.8362 25.2626 34.8919 25.3407 34.9316C25.4187 34.9714 25.5042 34.9943 25.5916 34.9989C25.6791 35.0035 25.7665 34.9897 25.8483 34.9583C25.93 34.9269 26.0043 34.8788 26.0662 34.8169L30 30.8837L36.6162 37.5H33.75V38.75H38.125C38.2907 38.75 38.4497 38.6841 38.5669 38.5669C38.6841 38.4497 38.75 38.2907 38.75 38.125V34.375H37.5Z" fill="#EFEFEF"/>
<path d="M23.875 35.6375L20.9375 35.0494L17.9463 32.0581C17.8775 31.9896 17.7939 31.9379 17.7019 31.9069L13.9519 30.6569C13.8528 30.6244 13.7472 30.617 13.6446 30.6353C13.542 30.6536 13.4455 30.6971 13.3637 30.7619L10.7712 32.8362L8.64937 29.6531C8.59187 29.5669 8.51384 29.4964 8.42231 29.4478C8.33078 29.3993 8.22861 29.3743 8.125 29.375H5.55188L4.995 24.9225C4.97611 24.7714 4.90269 24.6323 4.78852 24.5315C4.67436 24.4307 4.52731 24.375 4.375 24.375H1.875C1.70924 24.375 1.55027 24.4408 1.43306 24.5581C1.31585 24.6753 1.25 24.8342 1.25 25V38.125C1.25 38.2908 1.31585 38.4497 1.43306 38.5669C1.55027 38.6842 1.70924 38.75 1.875 38.75H23.75C23.9158 38.75 24.0747 38.6842 24.1919 38.5669C24.3092 38.4497 24.375 38.2908 24.375 38.125V36.25C24.375 36.1059 24.3253 35.9663 24.2342 35.8546C24.143 35.743 24.0162 35.6663 23.875 35.6375ZM23.125 37.5H2.5V25.625H3.82313L4.38 30.0775C4.39889 30.2286 4.47231 30.3677 4.58648 30.4685C4.70064 30.5693 4.84769 30.625 5 30.625H7.79063L10.1031 34.0969C10.1512 34.169 10.2137 34.2303 10.2868 34.2769C10.3598 34.3236 10.4417 34.3545 10.5274 34.3678C10.613 34.3811 10.7005 34.3764 10.7842 34.3541C10.8679 34.3318 10.9461 34.2923 11.0137 34.2381L13.8731 31.9506L17.1606 33.0463L20.1813 36.0669C20.2683 36.1543 20.3795 36.2137 20.5006 36.2375L23.1256 36.7625L23.125 37.5Z" fill="#EFEFEF"/>
<path d="M30.625 21.875V20.625H31.25C31.913 20.625 32.5489 20.3616 33.0178 19.8928C33.4866 19.4239 33.75 18.788 33.75 18.125V17.5C33.75 16.837 33.4866 16.2011 33.0178 15.7322C32.5489 15.2634 31.913 15 31.25 15H28.75C28.4185 15 28.1005 14.8683 27.8661 14.6339C27.6317 14.3995 27.5 14.0815 27.5 13.75V13.125C27.5 12.7935 27.6317 12.4755 27.8661 12.2411C28.1005 12.0067 28.4185 11.875 28.75 11.875H31.25C31.5815 11.875 31.8995 12.0067 32.1339 12.2411C32.3683 12.4755 32.5 12.7935 32.5 13.125H33.75C33.75 12.462 33.4866 11.8261 33.0178 11.3572C32.5489 10.8884 31.913 10.625 31.25 10.625H30.625V9.375H29.375V10.625H28.75C28.087 10.625 27.4511 10.8884 26.9822 11.3572C26.5134 11.8261 26.25 12.462 26.25 13.125V13.75C26.25 14.413 26.5134 15.0489 26.9822 15.5178C27.4511 15.9866 28.087 16.25 28.75 16.25H31.25C31.5815 16.25 31.8995 16.3817 32.1339 16.6161C32.3683 16.8505 32.5 17.1685 32.5 17.5V18.125C32.5 18.4565 32.3683 18.7745 32.1339 19.0089C31.8995 19.2433 31.5815 19.375 31.25 19.375H28.75C28.4185 19.375 28.1005 19.2433 27.8661 19.0089C27.6317 18.7745 27.5 18.4565 27.5 18.125H26.25C26.25 18.788 26.5134 19.4239 26.9822 19.8928C27.4511 20.3616 28.087 20.625 28.75 20.625H29.375V21.875H30.625Z" fill="#EFEFEF"/>
<path d="M1.875 15.625H5.625C5.79076 15.625 5.94973 15.5592 6.06694 15.4419C6.18415 15.3247 6.25 15.1658 6.25 15V13.4231L8.5175 14.3306C8.59152 14.3599 8.6704 14.375 8.75 14.375H12.5C12.5597 14.3749 12.619 14.3663 12.6762 14.3494L23.3013 11.2244C23.4307 11.1863 23.5444 11.1074 23.6253 10.9993C23.7062 10.8913 23.7499 10.76 23.75 10.625V8.75C23.75 8.58424 23.6842 8.42527 23.5669 8.30806C23.4497 8.19085 23.2908 8.125 23.125 8.125H16.7869L20.1619 6.25H25.5338L33.9575 8.77312C34.2787 8.86756 34.6175 8.88581 34.947 8.82643C35.2765 8.76705 35.5876 8.63167 35.8556 8.43104C36.1237 8.23042 36.3412 7.97007 36.491 7.67066C36.6409 7.37126 36.7188 7.04105 36.7188 6.70625C36.7094 6.22824 36.5429 5.76662 36.2449 5.39278C35.9468 5.01894 35.5339 4.75371 35.07 4.63813L25.8381 1.2875C25.7698 1.2629 25.6977 1.25021 25.625 1.25H15.625C15.5521 1.25022 15.4798 1.2629 15.4113 1.2875L8.64 3.75H6.25V2.5C6.25 2.33424 6.18415 2.17527 6.06694 2.05806C5.94973 1.94085 5.79076 1.875 5.625 1.875H1.875C1.70924 1.875 1.55027 1.94085 1.43306 2.05806C1.31585 2.17527 1.25 2.33424 1.25 2.5V15C1.25 15.1658 1.31585 15.3247 1.43306 15.4419C1.55027 15.5592 1.70924 15.625 1.875 15.625ZM8.75 5C8.82287 4.99978 8.89516 4.9871 8.96375 4.9625L15.735 2.5H25.515L34.6725 5.8225C35.1863 5.98062 35.4688 6.295 35.4688 6.70687C35.4688 6.84716 35.4362 6.98553 35.3735 7.11104C35.3108 7.23654 35.2198 7.34573 35.1076 7.42996C34.9954 7.51419 34.8652 7.57114 34.7272 7.59632C34.5892 7.62149 34.4472 7.61419 34.3125 7.575L25.8044 5.02625C25.7462 5.00883 25.6857 4.99999 25.625 5H20C19.8937 4.99999 19.7892 5.0271 19.6962 5.07875L14.0712 8.20375C13.9502 8.27103 13.855 8.37658 13.8005 8.50385C13.7459 8.63111 13.7352 8.77288 13.77 8.9069C13.8047 9.04092 13.883 9.1596 13.9925 9.24432C14.102 9.32905 14.2365 9.37501 14.375 9.375H22.5V10.1575L12.41 13.125H8.87L6.25 12.0769V5H8.75ZM2.5 3.125H5V14.375H2.5V3.125Z" fill="#EFEFEF"/>
</svg>
