<svg width="40" height="40" viewBox="0 0 40 40" fill="none" xmlns="http://www.w3.org/2000/svg">
<path d="M18.0305 27.6808L17.5048 32.4082C17.4788 32.6433 17.5544 32.8793 17.7123 33.056C17.8702 33.2325 18.0964 33.3335 18.3332 33.3335H21.6666C21.9034 33.3335 22.1296 33.2325 22.2875 33.056C22.4454 32.8794 22.5211 32.6434 22.495 32.4082L21.9693 27.6808C22.823 27.0599 23.3332 26.0776 23.3332 25.0001C23.3332 23.1617 21.8383 21.6667 19.9999 21.6667C18.1614 21.6667 16.6665 23.1617 16.6665 25.0001C16.6665 26.0776 17.1768 27.0599 18.0305 27.6808ZM19.9999 23.3335C20.9186 23.3335 21.6665 24.0814 21.6665 25.0001C21.6665 25.6389 21.3035 26.211 20.7192 26.4942C20.401 26.6489 20.2147 26.9858 20.2538 27.3365L20.7356 31.6667H19.2642L19.746 27.3365C19.7851 26.9857 19.5988 26.6489 19.2806 26.4942C18.6963 26.211 18.3333 25.6389 18.3333 25.0001C18.3332 24.0814 19.0811 23.3335 19.9999 23.3335Z" fill="#EFEFEF"/>
<path d="M34.1666 15H31.6666V11.6666C31.6666 5.23359 26.4331 0 20 0C13.5669 0 8.33336 5.23359 8.33336 11.6666V15H5.83336C5.37273 15 5 15.3727 5 15.8334V36.6667C5 38.5051 6.49492 40 8.33336 40H31.6667C33.5051 40 35 38.5051 35 36.6666V15.8334C35 15.3727 34.6273 15 34.1666 15ZM10 11.6666C10 6.15234 14.4857 1.66664 20 1.66664C25.5143 1.66664 30 6.15234 30 11.6666V15H28.3334V11.6666C28.3334 7.07187 24.5948 3.33328 20 3.33328C15.4052 3.33328 11.6666 7.07195 11.6666 11.6666V15H10V11.6666ZM26.6666 11.6666V15H13.3334V11.6666C13.3334 7.9907 16.3241 5 20 5C23.6759 5 26.6666 7.9907 26.6666 11.6666ZM33.3334 36.6666C33.3334 37.5854 32.5855 38.3333 31.6667 38.3333H8.33336C7.41461 38.3333 6.66672 37.5854 6.66672 36.6666V16.6666H33.3334V36.6666V36.6666Z" fill="#EFEFEF"/>
</svg>
