<svg width="40" height="40" viewBox="0 0 40 40" fill="none" xmlns="http://www.w3.org/2000/svg">
<path fill-rule="evenodd" clip-rule="evenodd" d="M33.2648 6.68014C29.7565 3.16773 25.0907 1.23253 20.1202 1.23047C9.8777 1.23047 1.54182 9.56611 1.5377 19.8114C1.53633 23.0864 2.39189 26.2834 4.0181 29.1014L1.38184 38.7304L11.2327 36.1464C13.947 37.627 17.0027 38.4074 20.1126 38.4082H20.1203C30.3618 38.4082 38.6986 30.0718 38.7024 19.8262C38.7045 14.8608 36.7734 10.1923 33.2648 6.68014ZM20.1202 35.2699H20.1138C17.3424 35.2688 14.6245 34.524 12.2528 33.1171L11.6891 32.7822L5.84343 34.3158L7.40371 28.6165L7.03637 28.032C5.49027 25.573 4.67384 22.7307 4.67522 19.8125C4.67842 11.2969 11.6071 4.3689 20.1264 4.3689C24.2517 4.37027 28.1296 5.97885 31.0456 8.89824C33.9616 11.8176 35.5664 15.6981 35.5651 19.8251C35.5614 28.3413 28.6331 35.2699 20.1202 35.2699ZM28.592 23.7026C28.1278 23.4699 25.845 22.347 25.4192 22.192C24.9939 22.037 24.684 21.9598 24.3749 22.4245C24.0651 22.8891 23.1755 23.935 22.9045 24.2448C22.6334 24.5547 22.363 24.5936 21.8986 24.361C21.4342 24.1286 19.9382 23.6382 18.1646 22.0565C16.7845 20.8253 15.8527 19.3048 15.5817 18.8402C15.3111 18.375 15.5794 18.148 15.7854 17.8926C16.288 17.2685 16.7914 16.6141 16.9461 16.3043C17.101 15.9945 17.0234 15.7233 16.907 15.4909C16.7914 15.2586 15.8627 12.9732 15.4759 12.0433C15.0987 11.1383 14.7163 11.2605 14.4311 11.2463C14.1605 11.2328 13.8509 11.2301 13.5412 11.2301C13.2317 11.2301 12.7287 11.3461 12.3029 11.8112C11.8774 12.2761 10.6781 13.3992 10.6781 15.6846C10.6781 17.9699 12.3418 20.1778 12.5739 20.4877C12.806 20.7976 15.8481 25.4874 20.5056 27.4982C21.6134 27.9771 22.4781 28.2626 23.1526 28.4765C24.265 28.8299 25.2768 28.78 26.077 28.6606C26.9693 28.5272 28.8238 27.5373 29.211 26.4528C29.5979 25.3682 29.5979 24.4386 29.4816 24.2448C29.3658 24.0512 29.0562 23.935 28.592 23.7026Z" fill="white"/>
</svg>
